<svg xmlns="http://www.w3.org/2000/svg" width="513" height="404" viewBox="0 0 513 404" fill="none"><g clip-path="url(#clip0_198_4754)"><path d="M415.206 280.794C406.582 280.139 401.223 276.27 398.848 268.901C396.37 261.191 398.616 254.726 405.761 249.186C406.618 248.558 406.917 247.398 406.48 246.436C404.32 241.117 393.791 228.177 389.421 225.456C388.985 225.185 388.473 225.063 387.962 225.108C387.451 225.153 386.968 225.363 386.586 225.706C380.01 231.572 373.353 232.591 366.281 228.811C359.158 225.023 356.309 218.814 357.584 209.857C357.726 208.669 357.009 207.518 355.851 207.216C347.227 204.895 338.353 203.991 329.525 204.565C328.325 204.625 327.367 205.582 327.313 206.815C326.969 215.071 323.321 220.587 316.493 223.197C308.233 226.335 301.399 224.101 295.568 216.32C294.808 215.354 293.511 215.097 292.457 215.734C284.688 220.267 277.817 225.899 272.048 232.469C271.251 233.38 271.284 234.735 272.092 235.614C278.055 242.259 279.142 248.971 275.391 256.056C271.616 263.225 265.435 266.09 256.505 264.83C255.306 264.641 254.182 265.376 253.864 266.563C251.634 275.16 250.797 284.008 251.395 292.83C251.455 294.03 252.383 294.97 253.601 295.056C262.305 295.562 267.717 299.442 270.128 306.848C272.62 314.605 270.367 321.045 263.244 326.578C262.295 327.308 262.065 328.62 262.65 329.663C267.078 337.239 272.72 344.056 279.393 349.918C280.279 350.721 281.577 350.732 282.468 349.968C289.075 344.29 295.648 343.321 302.537 346.906C309.612 350.61 312.541 356.671 311.496 365.408C311.435 365.975 311.577 366.545 311.895 367.018C312.214 367.491 312.689 367.837 313.237 367.994C321.811 370.23 330.626 371.103 339.402 370.52C339.553 370.525 339.689 370.485 339.85 370.436C340.74 370.171 341.452 369.311 341.602 368.395C341.664 368.103 341.709 367.916 341.706 367.743C342.261 360.196 346.775 354.248 353.39 352.172C353.452 352.128 353.544 352.1 353.611 352.081C360.641 349.983 367.617 352.273 372.315 358.178C373.216 359.275 374.765 360.303 377.025 358.959C383.924 354.835 390.159 349.743 395.598 343.817C395.817 343.551 396.035 343.288 396.246 343.077L396.443 342.818C397.202 341.944 397.16 340.64 396.449 339.758C391.216 333.641 390.029 327.507 392.946 321.043C396.444 313.112 402.72 309.82 412.117 310.892C413.268 310.996 414.368 310.268 414.674 309.133C416.988 300.562 417.92 291.782 417.389 283.015C417.337 281.85 416.401 280.887 415.206 280.795L415.206 280.794ZM339.456 241.244C365.043 244.099 383.47 267.151 380.615 292.734C377.759 318.316 354.702 336.741 329.115 333.886C303.528 331.032 285.1 307.979 287.956 282.397C290.812 256.814 313.869 238.39 339.456 241.244Z" fill="#FFBC5A"></path><path d="M324.779 372.925C320.652 372.463 316.563 371.703 312.544 370.653L312.477 370.635C311.305 370.301 310.29 369.563 309.61 368.551C308.931 367.54 308.631 366.321 308.764 365.11C309.675 357.498 307.29 352.496 301.263 349.34C295.381 346.281 289.975 347.14 284.259 352.052C282.328 353.707 279.457 353.668 277.566 351.97C270.663 345.905 264.846 338.866 260.278 331.05C260.27 331.037 260.262 331.023 260.255 331.009C258.983 328.745 259.535 325.966 261.568 324.402C267.743 319.606 269.634 314.294 267.512 307.688C265.459 301.384 260.993 298.241 253.442 297.799C250.83 297.629 248.794 295.554 248.652 292.996C248.039 283.895 248.898 274.77 251.205 265.874C251.886 263.324 254.34 261.715 256.908 262.113C264.659 263.199 269.752 260.869 272.96 254.777C276.16 248.733 275.233 243.228 270.047 237.449C268.302 235.552 268.264 232.623 269.981 230.661C275.944 223.87 283.035 218.053 291.058 213.37C293.301 212.028 296.103 212.553 297.729 214.624L297.767 214.673C302.891 221.51 308.366 223.346 315.518 220.629C321.308 218.415 324.27 213.859 324.569 206.701C324.684 204.057 326.743 201.966 329.363 201.822C338.466 201.233 347.618 202.155 356.566 204.563C359 205.198 360.62 207.616 360.313 210.182C360.311 210.203 360.308 210.223 360.305 210.244C359.197 218.03 361.505 223.159 367.572 226.385C373.601 229.608 379.059 228.739 384.757 223.656C386.432 222.146 388.954 221.925 390.877 223.126C395.759 226.166 406.576 239.434 409.009 245.36C409.937 247.477 409.276 249.99 407.423 251.375C401.242 256.176 399.348 261.479 401.464 268.061C403.478 274.309 407.914 277.487 415.414 278.056L415.419 278.056C417.974 278.265 420.006 280.321 420.132 282.867C420.676 291.862 419.733 300.94 417.327 309.849C416.675 312.268 414.379 313.857 411.868 313.629C411.847 313.626 411.825 313.624 411.806 313.622L411.724 313.613C403.487 312.694 398.469 315.33 395.46 322.152C392.993 327.618 393.975 332.639 398.538 337.974C398.555 337.994 398.572 338.014 398.588 338.034C400.142 339.96 400.136 342.679 398.587 344.539L398.434 344.74C398.36 344.837 398.28 344.93 398.193 345.016C398.066 345.144 397.874 345.377 397.719 345.565C397.688 345.602 397.656 345.639 397.623 345.675C391.993 351.809 385.537 357.072 378.435 361.318C375.492 363.069 372.336 362.532 370.192 359.921L370.166 359.889C366.153 354.845 360.452 352.953 354.508 354.682C354.412 354.725 354.314 354.762 354.213 354.794C348.681 356.53 344.946 361.535 344.453 367.867C344.442 368.255 344.373 368.58 344.311 368.871L344.302 368.915C343.954 370.853 342.489 372.518 340.635 373.07C340.419 373.135 340.016 373.257 339.499 373.268C334.592 373.588 329.666 373.473 324.78 372.925L324.779 372.925ZM314.261 365.421C322.417 367.513 330.71 368.313 338.92 367.798L338.935 367.73L338.963 367.602C338.963 367.582 338.965 367.562 338.966 367.542C339.597 358.959 344.717 352.113 352.349 349.621C352.537 349.538 352.707 349.483 352.843 349.444C360.954 347.03 369.029 349.648 374.452 356.449C374.848 356.931 374.975 356.982 375.62 356.599C382.24 352.641 388.265 347.733 393.524 342.013C393.736 341.756 393.936 341.519 394.148 341.294C388.386 334.422 387.139 327.23 390.441 319.913C394.37 311.006 401.659 307.034 412.099 308.126C414.264 299.988 415.127 291.709 414.664 283.508C405.129 282.684 398.913 278.059 396.233 269.745C393.42 260.994 395.974 253.416 403.825 247.213C401.694 242.381 392.18 230.648 388.204 227.942C380.815 234.419 373.009 235.524 364.986 231.234C356.917 226.943 353.497 219.727 354.821 209.785C346.648 207.623 338.323 206.785 330.042 207.285C329.561 216.416 325.221 222.802 317.475 225.764C308.144 229.308 300.111 226.782 293.587 218.257C286.279 222.556 279.809 227.856 274.348 234.017C280.909 241.477 282.069 249.315 277.819 257.342C273.549 265.451 266.355 268.891 256.437 267.594C254.369 275.703 253.587 284.029 254.116 292.335C263.725 292.985 270.001 297.582 272.741 305.998C275.559 314.767 273.015 322.35 265.183 328.55C269.378 335.661 274.685 342.081 280.965 347.641C288.307 341.471 295.991 340.403 303.806 344.47C311.816 348.663 315.33 355.71 314.261 365.421ZM355.151 209.873L355.158 209.874C355.156 209.874 355.153 209.874 355.151 209.873ZM328.81 336.617C301.758 333.599 282.206 309.139 285.225 282.092C288.245 255.045 312.709 235.496 339.761 238.514C366.813 241.532 386.365 265.992 383.345 293.039C380.326 320.086 355.862 339.635 328.81 336.617ZM339.152 243.975C315.112 241.293 293.37 258.665 290.687 282.701C288.004 306.737 305.38 328.474 329.42 331.155C353.46 333.837 375.2 316.465 377.884 292.429C380.567 268.393 363.192 246.657 339.152 243.975Z" fill="#FFBC5A"></path></g><g clip-path="url(#clip1_198_4754)"><path d="M362.486 179.107H90.4196C64.6713 179.107 43.7983 199.936 43.7983 225.631C43.7983 251.325 64.6713 272.154 90.4196 272.154H362.486C388.234 272.154 409.107 251.325 409.107 225.631C409.107 199.937 388.234 179.107 362.486 179.107Z" fill="#FF730D"></path><path d="M362.486 274.906H90.4197C63.1918 274.906 41.04 252.801 41.04 225.631C41.04 198.46 63.1918 176.354 90.4197 176.354H362.486C389.714 176.354 411.866 198.46 411.866 225.631C411.866 252.802 389.715 274.906 362.486 274.906ZM90.4197 181.86C66.2337 181.86 46.5567 201.495 46.5567 225.631C46.5567 249.766 66.2337 269.401 90.4197 269.401H362.486C386.672 269.401 406.349 249.766 406.349 225.631C406.349 201.496 386.672 181.86 362.486 181.86H90.4197Z" fill="#18181B"></path><path d="M90.4201 272.154C116.168 272.154 137.041 251.325 137.041 225.631C137.041 199.937 116.168 179.107 90.4201 179.107C64.6719 179.107 43.7988 199.937 43.7988 225.631C43.7988 251.325 64.6719 272.154 90.4201 272.154Z" fill="#FFD8A6"></path><path d="M90.4197 274.906C63.1918 274.906 41.04 252.802 41.04 225.631C41.04 198.46 63.1918 176.354 90.4197 176.354C117.648 176.354 139.8 198.459 139.8 225.631C139.8 252.802 117.648 274.907 90.4197 274.907V274.906ZM90.4197 181.86C66.2333 181.86 46.5567 201.495 46.5567 225.631C46.5567 249.766 66.2333 269.402 90.4197 269.402C114.606 269.402 134.283 249.766 134.283 225.631C134.283 201.495 114.606 181.86 90.4197 181.86Z" fill="#18181B"></path><path d="M96.6495 238.522C107.225 238.522 115.798 229.967 115.798 219.414C115.798 208.861 107.225 200.306 96.6495 200.306C86.074 200.306 77.501 208.861 77.501 219.414C77.501 229.967 86.074 238.522 96.6495 238.522Z" fill="#FFF4E2"></path><path d="M96.6491 241.264C91.0393 241.264 85.4296 239.133 81.1589 234.871C72.6176 226.348 72.6176 212.479 81.1589 203.956C85.2968 199.827 90.7981 197.553 96.6495 197.553C102.501 197.553 108.002 199.827 112.14 203.956C120.681 212.479 120.681 226.348 112.14 234.871C107.869 239.133 102.259 241.264 96.6491 241.264ZM96.6491 203.057C92.2714 203.057 88.1552 204.759 85.0596 207.848C78.6694 214.225 78.6694 224.601 85.0596 230.979C91.4498 237.355 101.848 237.355 108.238 230.979C114.629 224.602 114.629 214.225 108.238 207.849C105.143 204.759 101.027 203.058 96.6487 203.058L96.6491 203.057Z" fill="#18181B"></path><path d="M67.2482 251.505C66.7027 251.505 66.1694 251.344 65.7158 251.042C65.2621 250.739 64.9086 250.309 64.6998 249.806C64.491 249.303 64.4363 248.75 64.5427 248.216C64.6491 247.682 64.9118 247.192 65.2975 246.807L81.1584 230.979C81.6757 230.463 82.3774 230.173 83.1089 230.173C83.8405 230.173 84.5422 230.463 85.0595 230.979C85.5768 231.495 85.8674 232.195 85.8674 232.926C85.8674 233.656 85.5768 234.356 85.0595 234.872L69.1986 250.699C68.9426 250.955 68.6385 251.158 68.3038 251.297C67.969 251.435 67.6106 251.506 67.2482 251.505Z" fill="#18181B"></path><path d="M163.048 253.038C165.42 253.038 167.342 251.12 167.342 248.753C167.342 246.386 165.42 244.468 163.048 244.468C160.676 244.468 158.754 246.386 158.754 248.753C158.754 251.12 160.676 253.038 163.048 253.038Z" fill="#18181B"></path><path d="M163.049 255.79C159.16 255.79 155.996 252.633 155.996 248.753C155.996 244.872 159.16 241.715 163.049 241.715C166.937 241.715 170.101 244.872 170.101 248.753C170.101 252.633 166.937 255.79 163.049 255.79ZM163.049 247.22C162.202 247.22 161.513 247.907 161.513 248.753C161.513 249.598 162.202 250.285 163.049 250.285C163.896 250.285 164.585 249.598 164.585 248.753C164.585 247.907 163.896 247.22 163.049 247.22Z" fill="#18181B"></path><path d="M185.133 253.038C187.504 253.038 189.427 251.12 189.427 248.753C189.427 246.386 187.504 244.468 185.133 244.468C182.761 244.468 180.838 246.386 180.838 248.753C180.838 251.12 182.761 253.038 185.133 253.038Z" fill="#18181B"></path><path d="M185.132 255.79C181.244 255.79 178.08 252.633 178.08 248.753C178.08 244.872 181.244 241.715 185.132 241.715C189.021 241.715 192.185 244.872 192.185 248.753C192.185 252.633 189.021 255.79 185.132 255.79ZM185.132 247.22C184.285 247.22 183.596 247.907 183.596 248.753C183.596 249.598 184.285 250.285 185.132 250.285C185.979 250.285 186.668 249.598 186.668 248.753C186.668 247.907 185.979 247.22 185.132 247.22Z" fill="#18181B"></path><path d="M207.216 253.038C209.588 253.038 211.51 251.12 211.51 248.753C211.51 246.386 209.588 244.468 207.216 244.468C204.844 244.468 202.922 246.386 202.922 248.753C202.922 251.12 204.844 253.038 207.216 253.038Z" fill="#18181B"></path><path d="M207.216 255.79C203.328 255.79 200.164 252.633 200.164 248.753C200.164 244.872 203.328 241.715 207.216 241.715C211.105 241.715 214.269 244.872 214.269 248.753C214.269 252.633 211.105 255.79 207.216 255.79ZM207.216 247.22C206.369 247.22 205.68 247.907 205.68 248.753C205.68 249.598 206.369 250.285 207.216 250.285C208.063 250.285 208.752 249.598 208.752 248.753C208.752 247.907 208.063 247.22 207.216 247.22Z" fill="#18181B"></path></g><g clip-path="url(#clip2_198_4754)"><path d="M377.532 134.87C377.031 134.967 376.512 134.92 376.035 134.734C375.558 134.549 375.143 134.231 374.837 133.819C371.201 128.919 365.254 126.591 359.316 127.743C353.379 128.895 348.735 133.277 347.196 139.18C347.028 139.821 346.634 140.378 346.087 140.748C345.54 141.118 344.878 141.274 344.223 141.188C336.326 140.151 328.863 137.443 322.042 133.138C321.499 132.795 321.094 132.272 320.898 131.659C320.702 131.046 320.727 130.384 320.97 129.789C323.228 124.251 322.209 118.01 318.311 113.501C314.566 109.171 308.785 107.236 303.187 108.433C301.903 108.712 300.583 108.011 300.091 106.773C298.768 103.444 297.77 100.074 297.126 96.7563C296.307 92.5389 296.002 88.0785 296.218 83.4995C296.247 82.8953 296.474 82.3182 296.865 81.859C297.256 81.3997 297.788 81.0844 298.377 80.9625C303.852 79.8306 308.199 76.0004 310.005 70.7173C311.733 65.6645 310.794 60.1219 307.492 55.8917C307.121 55.4154 306.917 54.8288 306.913 54.2242C306.909 53.6196 307.105 53.0311 307.47 52.5513C312.368 46.112 318.391 40.9651 325.372 37.2528C325.888 36.9787 326.478 36.8792 327.056 36.969C327.633 37.0588 328.166 37.3332 328.577 37.7514C332.274 41.5207 337.556 43.1748 342.705 42.1758C347.854 41.1768 352.134 37.6673 354.155 32.788C354.379 32.2468 354.772 31.793 355.273 31.494C355.775 31.195 356.36 31.0666 356.94 31.1279C364.805 31.9603 372.316 34.4816 379.267 38.621C379.785 38.9295 380.187 39.4021 380.409 39.9644C380.632 40.5267 380.662 41.1468 380.496 41.7275C379.017 46.8854 380.22 52.3769 383.713 56.4168C387.365 60.6404 392.83 62.5666 398.33 61.5694C398.923 61.462 399.534 61.5557 400.069 61.8357C400.603 62.1157 401.03 62.5662 401.283 63.1162C403.195 67.2856 404.58 71.5359 405.398 75.7493C406.041 79.0646 406.377 82.5637 406.396 86.1498C406.402 87.482 405.441 88.6115 404.146 88.8475C398.505 89.8247 393.869 93.7867 392.017 99.2032C390.089 104.843 391.479 111.012 395.646 115.303C396.093 115.764 396.365 116.369 396.412 117.011C396.459 117.652 396.279 118.289 395.904 118.81C391.188 125.353 385.28 130.656 378.345 134.571C378.092 134.714 377.818 134.815 377.532 134.871L377.532 134.87ZM358.276 122.385C365.349 121.012 372.686 123.458 377.601 128.669C382.425 125.652 386.652 121.848 390.209 117.324C385.828 111.694 384.54 104.268 386.882 97.4198C389.119 90.8764 394.383 85.9025 400.913 84.0019C400.801 81.5167 400.518 79.0973 400.069 76.7832C399.452 73.6058 398.472 70.3952 397.15 67.2143C390.554 67.7094 383.991 65.0477 379.618 59.9906C375.388 55.0982 373.649 48.6299 374.783 42.3306C369.568 39.4863 364.03 37.6281 358.271 36.7907C355.293 42.3653 349.994 46.3205 343.745 47.5329C337.496 48.7454 331.102 47.0592 326.256 43.0027C321.23 45.9318 316.789 49.7265 313.016 54.3148C316.425 59.7323 317.233 66.3813 315.14 72.5003C312.977 78.8261 307.886 83.7496 301.583 85.7566C301.546 89.1985 301.838 92.5419 302.455 95.7224C302.904 98.0369 303.548 100.386 304.373 102.73C311.139 102.051 317.883 104.695 322.406 109.927C327.14 115.402 328.725 122.77 326.767 129.63C331.759 132.495 337.103 134.442 342.706 135.436C345.315 128.767 351.204 123.757 358.276 122.385ZM356.478 113.12C341.742 115.979 327.414 106.252 324.538 91.4378C321.662 76.623 331.31 62.2445 346.046 59.3855C360.782 56.5264 375.11 66.253 377.986 81.0679C380.862 95.8827 371.213 110.261 356.478 113.12ZM347.086 64.7433C335.289 67.0322 327.564 78.5439 329.867 90.4043C332.169 102.265 343.641 110.052 355.438 107.763C367.235 105.474 374.959 93.9625 372.657 82.1021C370.354 70.2417 358.883 62.4544 347.086 64.7433Z" fill="#FFBC5A"></path></g><g clip-path="url(#clip3_198_4754)"><path d="M358.646 216.093L462.063 306.061C470.289 313.217 471.155 325.685 463.999 333.909C456.274 342.934 441.938 342.911 434.212 333.909L344.235 230.502C336.199 220.712 348.87 208.06 358.646 216.093H358.646Z" fill="#7E4F6A"></path><path d="M449.116 343.417C442.529 343.417 436.337 340.604 432.127 335.698L432.153 335.676C431.827 335.354 431.495 334.972 431.129 334.551L342.162 232.306C342.145 232.285 342.128 232.266 342.111 232.245C336.885 225.878 338.815 218.672 342.819 214.672C346.823 210.67 354.029 208.745 360.39 213.971C360.41 213.988 360.429 214.005 360.449 214.021L463.866 303.989C468.398 307.932 471.123 313.403 471.539 319.394C471.956 325.386 470.014 331.181 466.071 335.713C461.889 340.598 455.71 343.412 449.131 343.417H449.116ZM436.282 332.105L436.296 332.12C439.462 335.809 444.134 337.923 449.116 337.923H449.128C454.1 337.92 458.76 335.806 461.911 332.124C468.077 325.038 467.329 314.284 460.26 308.134L356.873 218.193C352.89 214.942 348.907 216.354 346.703 218.557C344.498 220.76 343.084 224.743 346.335 228.731C348.328 231.023 436.032 331.818 436.282 332.105H436.282Z" fill="#18181B"></path><path d="M213.443 85.3139C175.336 123.417 175.336 185.194 213.443 223.298C251.549 261.401 313.334 261.402 351.44 223.298C389.547 185.195 389.547 123.417 351.44 85.3135C313.334 47.2103 251.549 47.2103 213.443 85.3139ZM341.296 213.154C308.791 245.656 256.092 245.656 223.587 213.154C191.082 180.653 191.082 127.959 223.587 95.4572C256.092 62.9557 308.791 62.956 341.296 95.4572C373.801 127.959 373.801 180.653 341.296 213.154Z" fill="#7E4F6A"></path><path d="M282.442 254.622C255.644 254.622 230.45 244.187 211.5 225.24C192.551 206.292 182.115 181.101 182.115 154.306C182.115 127.511 192.551 102.319 211.5 83.3712C230.449 64.4241 255.644 53.9893 282.442 53.9893C309.24 53.9893 334.434 64.4238 353.383 83.3708C372.332 102.318 382.768 127.51 382.768 154.306C382.768 181.101 372.332 206.293 353.383 225.241C334.435 244.187 309.238 254.623 282.442 254.623L282.442 254.622ZM282.442 59.5272C258.154 59.5272 233.875 68.7678 215.386 87.2562C197.474 105.166 187.609 128.978 187.609 154.306C187.609 179.634 197.474 203.446 215.386 221.355C233.297 239.265 257.111 249.129 282.442 249.129C307.772 249.129 331.587 239.265 349.498 221.356C386.473 184.384 386.473 124.227 349.498 87.2559C331.013 68.7721 306.724 59.5272 282.442 59.5272ZM282.441 240.277C259.476 240.277 237.884 231.334 221.644 215.097C205.405 198.859 196.462 177.269 196.462 154.306C196.462 131.342 205.405 109.753 221.644 93.5149C237.883 77.2781 259.477 68.3345 282.441 68.3345C305.407 68.3345 326.999 77.2773 343.238 93.5149C359.478 109.753 368.421 131.342 368.421 154.306C368.421 177.269 359.478 198.859 343.238 215.097C326.999 231.334 305.408 240.277 282.441 240.277ZM282.441 73.8658C261.831 73.8658 241.22 81.7103 225.53 97.3996C194.148 128.778 194.148 179.834 225.53 211.212C241.218 226.9 261.833 234.744 282.441 234.746C303.054 234.748 323.661 226.903 339.353 211.212C370.735 179.834 370.735 128.778 339.353 97.3996C323.663 81.7103 303.052 73.8658 282.441 73.8658Z" fill="#18181B"></path><path d="M341.296 213.154C308.791 245.656 256.092 245.656 223.587 213.154C191.083 180.653 191.082 127.959 223.587 95.4571C256.092 62.9555 308.791 62.9559 341.296 95.4571C373.801 127.959 373.801 180.653 341.296 213.154Z" fill="#FEE5F8"></path><path d="M282.441 240.278C259.476 240.278 237.884 231.335 221.644 215.097C205.405 198.859 196.462 177.27 196.462 154.306C196.462 131.343 205.405 109.753 221.644 93.5154C237.883 77.2785 259.477 68.335 282.441 68.335C305.407 68.335 326.999 77.2778 343.238 93.5154C359.478 109.753 368.421 131.342 368.421 154.306C368.421 177.27 359.478 198.859 343.238 215.097C326.999 231.335 305.408 240.277 282.441 240.278ZM282.441 73.8286C260.943 73.8286 240.731 82.1997 225.53 97.4001C194.148 128.778 194.148 179.834 225.53 211.213C240.731 226.413 260.943 234.784 282.441 234.784C303.94 234.784 324.152 226.413 339.353 211.212C354.555 196.012 362.927 175.802 362.927 154.306C362.927 132.81 354.555 112.6 339.353 97.4001C324.152 82.1997 303.94 73.8286 282.441 73.8286Z" fill="#18181B"></path></g><g clip-path="url(#clip4_198_4754)"><path d="M218.109 141.824C218.109 127.404 206.401 115.715 191.957 115.715C177.514 115.715 165.806 127.404 165.806 141.824V187.438C165.806 201.858 177.514 213.547 191.957 213.547C206.401 213.547 218.109 201.858 218.109 187.438V141.824Z" fill="white"></path><path d="M191.958 216.288C176.024 216.288 163.061 203.346 163.061 187.438V141.824C163.061 125.916 176.024 112.974 191.958 112.974C207.892 112.974 220.855 125.916 220.855 141.823V187.438C220.855 203.345 207.891 216.287 191.958 216.287V216.288ZM191.958 118.455C179.051 118.455 168.551 128.938 168.551 141.823V187.438C168.551 200.323 179.052 210.806 191.958 210.806C204.864 210.806 215.364 200.323 215.364 187.438V141.823C215.364 128.938 204.864 118.455 191.958 118.455Z" fill="#18181B"></path><path d="M181.68 199.02C190.447 199.02 197.554 191.924 197.554 183.172C197.554 174.419 190.447 167.323 181.68 167.323C172.913 167.323 165.806 174.419 165.806 183.172C165.806 191.924 172.913 199.02 181.68 199.02Z" fill="#18181B"></path><path d="M181.68 201.76C171.413 201.76 163.061 193.421 163.061 183.171C163.061 172.921 171.413 164.582 181.68 164.582C191.947 164.582 200.3 172.921 200.3 183.171C200.3 193.421 191.947 201.76 181.68 201.76ZM181.68 170.064C174.441 170.064 168.551 175.944 168.551 183.171C168.551 190.399 174.441 196.278 181.68 196.278C188.92 196.278 194.809 190.398 194.809 183.171C194.809 175.944 188.919 170.064 181.68 170.064Z" fill="#18181B"></path><path d="M294.428 141.824C294.428 127.404 282.719 115.715 268.276 115.715C253.833 115.715 242.125 127.404 242.125 141.824V187.438C242.125 201.858 253.833 213.547 268.276 213.547C282.719 213.547 294.428 201.858 294.428 187.438V141.824Z" fill="white"></path><path d="M268.277 216.288C252.343 216.288 239.379 203.346 239.379 187.438V141.824C239.379 125.916 252.342 112.974 268.277 112.974C284.211 112.974 297.174 125.916 297.174 141.823V187.438C297.174 203.345 284.211 216.287 268.277 216.287V216.288ZM268.277 118.455C255.37 118.455 244.87 128.938 244.87 141.823V187.438C244.87 200.323 255.371 210.806 268.277 210.806C281.183 210.806 291.683 200.323 291.683 187.438V141.823C291.683 128.938 281.183 118.455 268.277 118.455Z" fill="#18181B"></path><path d="M257.999 199.02C266.766 199.02 273.873 191.924 273.873 183.172C273.873 174.419 266.766 167.323 257.999 167.323C249.232 167.323 242.125 174.419 242.125 183.172C242.125 191.924 249.232 199.02 257.999 199.02Z" fill="#18181B"></path><path d="M257.999 201.76C247.732 201.76 239.379 193.421 239.379 183.171C239.379 172.921 247.732 164.582 257.999 164.582C268.265 164.582 276.618 172.921 276.618 183.171C276.618 193.421 268.265 201.76 257.999 201.76ZM257.999 170.064C250.759 170.064 244.87 175.944 244.87 183.171C244.87 190.399 250.759 196.278 257.999 196.278C265.238 196.278 271.127 190.398 271.127 183.171C271.127 175.944 265.238 170.064 257.999 170.064Z" fill="#18181B"></path></g><g clip-path="url(#clip5_198_4754)"><path d="M368.261 196.092C368.261 188.328 361.964 182.032 354.199 182.032C347.056 182.032 341.221 187.378 340.321 194.274C329.276 196.281 320.895 205.927 320.895 217.551C320.895 218.377 320.939 219.19 321.019 219.995C315.474 225.374 312.013 232.892 312.013 241.23C312.013 249.568 315.486 257.109 321.048 262.49C320.954 263.284 320.895 264.089 320.895 264.909C320.895 275.757 329.24 284.645 339.859 285.539C342.123 290.811 347.357 294.508 353.459 294.508C361.632 294.508 368.261 287.881 368.261 279.708V196.092Z" fill="#FFBB6E"></path><path d="M353.459 297.254C350.302 297.255 347.204 296.404 344.491 294.791C341.778 293.178 339.551 290.863 338.045 288.089C332.813 287.289 328.006 284.744 324.377 280.822C320.359 276.479 318.147 270.828 318.147 264.909C318.147 264.454 318.162 263.991 318.194 263.514C312.426 257.47 309.266 249.608 309.266 241.23C309.266 232.851 312.423 224.995 318.185 218.953C318.16 218.486 318.147 218.018 318.147 217.551C318.147 205.421 326.375 194.955 337.966 191.979C339.822 184.62 346.485 179.285 354.199 179.285C363.468 179.285 371.008 186.824 371.008 196.091V279.708C371.008 289.383 363.135 297.254 353.459 297.254ZM354.199 184.779C348.573 184.779 343.778 189.014 343.045 194.63C342.969 195.207 342.712 195.746 342.311 196.167C341.91 196.589 341.384 196.873 340.811 196.977C330.863 198.784 323.642 207.437 323.642 217.551C323.642 218.252 323.679 218.983 323.753 219.725C323.793 220.136 323.741 220.552 323.598 220.94C323.456 221.328 323.228 221.679 322.931 221.967C317.662 227.078 314.76 233.919 314.76 241.23C314.76 248.541 317.672 255.402 322.959 260.517C323.263 260.811 323.495 261.172 323.637 261.571C323.779 261.97 323.827 262.396 323.776 262.817C323.686 263.573 323.642 264.258 323.642 264.909C323.642 274.166 330.866 282.025 340.089 282.802C340.585 282.844 341.061 283.02 341.465 283.311C341.869 283.602 342.186 283.998 342.383 284.455C344.29 288.893 348.637 291.76 353.459 291.76C360.106 291.76 365.513 286.354 365.513 279.708V196.091C365.513 189.854 360.438 184.779 354.199 184.779Z" fill="#18181B"></path><path d="M357.255 281.982C356.586 281.981 355.94 281.737 355.439 281.294C354.938 280.851 354.615 280.24 354.532 279.577C354.448 278.913 354.61 278.242 354.986 277.689C355.363 277.136 355.928 276.739 356.576 276.573C361.922 275.207 365.513 270.519 365.513 264.909C365.513 263.391 366.743 262.162 368.26 262.162C369.778 262.162 371.008 263.391 371.008 264.909C371.008 272.943 365.633 279.928 357.937 281.896C357.714 281.953 357.485 281.982 357.255 281.982L357.255 281.982ZM345.041 222.498C344.623 222.498 344.21 222.402 343.833 222.219C343.457 222.035 343.128 221.768 342.871 221.438C342.614 221.107 342.436 220.723 342.35 220.313C342.264 219.903 342.273 219.479 342.376 219.074C343.082 216.295 344.479 213.735 346.406 211.63C344.479 209.523 343.082 206.964 342.376 204.19C342.285 203.839 342.264 203.474 342.314 203.116C342.364 202.757 342.485 202.412 342.669 202.1C342.853 201.788 343.097 201.516 343.387 201.299C343.677 201.082 344.007 200.924 344.358 200.835C344.709 200.745 345.074 200.727 345.432 200.779C345.791 200.831 346.135 200.954 346.446 201.14C346.757 201.326 347.027 201.571 347.243 201.862C347.458 202.153 347.614 202.484 347.701 202.836C348.367 205.455 349.939 207.797 352.127 209.431C352.47 209.687 352.748 210.019 352.94 210.401C353.131 210.784 353.231 211.205 353.231 211.633C353.231 212.061 353.13 212.483 352.938 212.865C352.746 213.247 352.468 213.579 352.125 213.835C349.939 215.463 348.368 217.804 347.702 220.427C347.551 221.019 347.208 221.544 346.726 221.919C346.245 222.294 345.652 222.498 345.041 222.498L345.041 222.498ZM344.312 257.003C343.708 257.003 343.121 256.805 342.641 256.438C342.162 256.072 341.816 255.557 341.658 254.975C341.5 254.392 341.538 253.773 341.767 253.215C341.996 252.656 342.402 252.188 342.923 251.883C344.79 250.793 347.172 248.568 347.925 244.162C348.047 243.444 348.45 242.804 349.045 242.383C349.639 241.962 350.377 241.794 351.095 241.916C351.45 241.977 351.791 242.107 352.096 242.299C352.401 242.491 352.666 242.742 352.874 243.036C353.083 243.33 353.231 243.663 353.311 244.014C353.391 244.366 353.401 244.73 353.341 245.086C352.476 250.153 349.761 254.251 345.696 256.627C345.276 256.873 344.798 257.003 344.312 257.003Z" fill="#18181B"></path><path d="M349.666 263.45C349.161 263.451 348.666 263.312 348.235 263.049C347.803 262.787 347.453 262.41 347.222 261.961C344.369 256.429 339.454 253.479 332.196 252.944C331.47 252.89 330.794 252.55 330.318 251.998C329.842 251.447 329.605 250.729 329.658 250.002C329.684 249.642 329.781 249.291 329.943 248.968C330.105 248.646 330.329 248.359 330.602 248.123C330.876 247.887 331.193 247.708 331.536 247.595C331.879 247.482 332.24 247.438 332.6 247.465C341.793 248.143 348.356 252.173 352.105 259.444C352.321 259.863 352.426 260.33 352.409 260.801C352.393 261.271 352.255 261.73 352.01 262.132C351.765 262.535 351.421 262.867 351.01 263.098C350.6 263.329 350.137 263.45 349.666 263.451L349.666 263.45Z" fill="#18181B"></path><path d="M368.261 196.092C368.261 188.328 374.557 182.032 382.323 182.032C389.466 182.032 395.301 187.378 396.201 194.274C407.246 196.281 415.627 205.927 415.627 217.551C415.627 218.377 415.583 219.19 415.503 219.995C421.048 225.374 424.509 232.892 424.509 241.23C424.509 249.568 421.036 257.109 415.473 262.49C415.568 263.284 415.627 264.089 415.627 264.909C415.627 275.757 407.282 284.645 396.663 285.539C394.398 290.811 389.164 294.508 383.063 294.508C374.889 294.508 368.261 287.881 368.261 279.708V196.092Z" fill="#FF9FAC"></path><path d="M383.062 297.254C373.386 297.254 365.513 289.383 365.513 279.708V196.091C365.513 186.824 373.054 179.285 382.322 179.285C390.036 179.285 396.699 184.62 398.555 191.979C410.147 194.955 418.374 205.42 418.374 217.55C418.374 218.018 418.362 218.485 418.337 218.952C424.098 224.995 427.256 232.855 427.256 241.229C427.256 249.603 424.095 257.47 418.327 263.514C418.359 263.991 418.374 264.453 418.374 264.909C418.374 270.827 416.162 276.479 412.144 280.822C408.515 284.744 403.709 287.289 398.476 288.089C396.97 290.862 394.743 293.178 392.03 294.791C389.317 296.404 386.219 297.255 383.062 297.254ZM382.322 184.779C376.083 184.779 371.008 189.853 371.008 196.091V279.708C371.008 286.354 376.415 291.76 383.062 291.76C387.884 291.76 392.231 288.893 394.138 284.455C394.335 283.998 394.652 283.602 395.056 283.311C395.46 283.02 395.935 282.844 396.432 282.802C405.655 282.025 412.879 274.166 412.879 264.909C412.879 264.258 412.835 263.574 412.744 262.817C412.694 262.396 412.742 261.97 412.884 261.571C413.025 261.172 413.258 260.811 413.562 260.517C418.849 255.402 421.76 248.553 421.76 241.23C421.76 233.907 418.858 227.078 413.589 221.967C413.292 221.679 413.064 221.328 412.922 220.94C412.78 220.552 412.727 220.136 412.768 219.725C412.841 218.983 412.879 218.252 412.879 217.551C412.879 207.437 405.658 198.784 395.709 196.977C395.136 196.873 394.611 196.589 394.21 196.167C393.808 195.746 393.551 195.207 393.476 194.63C392.743 189.014 387.948 184.779 382.322 184.779Z" fill="#18181B"></path><path d="M398.452 231.379C398.41 231.379 398.368 231.378 398.326 231.376C394.612 231.208 390.243 228.869 389.117 222.805C389.051 222.45 389.056 222.086 389.131 221.733C389.206 221.38 389.349 221.046 389.554 220.748C389.758 220.451 390.019 220.197 390.321 220C390.624 219.804 390.962 219.669 391.317 219.603C392.809 219.324 394.242 220.31 394.519 221.802C395.155 225.227 397.332 225.832 398.573 225.888C399.29 225.921 399.965 226.233 400.454 226.757C400.944 227.281 401.209 227.976 401.193 228.692C401.177 229.409 400.882 230.092 400.369 230.594C399.857 231.096 399.169 231.377 398.451 231.379H398.452Z" fill="#18181B"></path><path d="M389.813 239.775C389.342 239.774 388.879 239.653 388.468 239.422C388.057 239.191 387.713 238.858 387.468 238.456C387.223 238.054 387.086 237.595 387.069 237.124C387.053 236.653 387.157 236.186 387.374 235.767C391.127 228.495 397.69 224.464 406.881 223.786C407.607 223.732 408.326 223.969 408.877 224.445C409.429 224.921 409.769 225.597 409.823 226.323C409.876 227.05 409.639 227.768 409.163 228.319C408.687 228.871 408.011 229.211 407.285 229.265C400.029 229.8 395.113 232.751 392.257 238.287C392.025 238.735 391.675 239.112 391.244 239.374C390.813 239.637 390.318 239.775 389.813 239.775L389.813 239.775ZM374.799 246.632C374.567 246.632 374.333 246.603 374.099 246.541C368.883 245.172 365.513 240.763 365.513 235.31C365.513 233.793 366.743 232.563 368.261 232.563C369.778 232.563 371.008 233.793 371.008 235.31C371.008 239.708 374.442 240.951 375.495 241.228C376.141 241.397 376.704 241.795 377.077 242.349C377.451 242.903 377.61 243.574 377.525 244.236C377.439 244.899 377.116 245.507 376.614 245.948C376.112 246.389 375.467 246.632 374.799 246.632ZM394.44 278.732C393.213 278.732 392.095 277.904 391.779 276.661C391.113 274.042 389.542 271.702 387.355 270.071C387.012 269.815 386.734 269.483 386.542 269.1C386.35 268.718 386.25 268.296 386.25 267.868C386.25 267.441 386.35 267.019 386.542 266.636C386.734 266.254 387.013 265.922 387.356 265.666C389.535 264.041 391.106 261.705 391.778 259.087C391.868 258.738 392.025 258.409 392.242 258.121C392.458 257.832 392.73 257.589 393.04 257.406C393.351 257.222 393.695 257.101 394.052 257.051C394.409 257 394.773 257.02 395.122 257.11C395.472 257.199 395.8 257.357 396.089 257.574C396.377 257.79 396.62 258.062 396.804 258.372C396.988 258.683 397.108 259.026 397.159 259.383C397.21 259.741 397.19 260.104 397.1 260.454C396.39 263.221 394.995 265.772 393.075 267.869C395.003 269.974 396.399 272.533 397.104 275.308C397.208 275.714 397.217 276.138 397.131 276.548C397.046 276.957 396.868 277.342 396.611 277.673C396.353 278.003 396.024 278.27 395.648 278.454C395.272 278.637 394.859 278.733 394.44 278.732Z" fill="#18181B"></path></g><defs><clipPath id="clip0_198_4754"><rect width="171.851" height="171.828" fill="white" transform="matrix(0.993835 0.110872 -0.110941 0.993827 258.501 192.636)"></rect></clipPath><clipPath id="clip1_198_4754"><rect width="370.826" height="98.5518" fill="white" transform="translate(41.04 176.354)"></rect></clipPath><clipPath id="clip2_198_4754"><rect width="110.291" height="105.883" fill="white" transform="matrix(0.981693 -0.190469 0.190575 0.981673 286.997 44.5781)"></rect></clipPath><clipPath id="clip3_198_4754"><rect width="289.479" height="289.427" fill="white" transform="translate(182.115 53.9893)"></rect></clipPath><clipPath id="clip4_198_4754"><rect width="134.113" height="103.315" fill="white" transform="translate(163.061 112.974)"></rect></clipPath><clipPath id="clip5_198_4754"><rect width="117.99" height="117.969" fill="white" transform="translate(309.266 179.285)"></rect></clipPath></defs></svg>